{
  "accessors": [
    {
      "bufferView": 0,
      "byteOffset": 0,
      "componentType": 5126,
      "count": 434276,
      "max": [
        4.452744483947754,
        2.5871593952178955,
        -6.465819835662842
      ],
      "min": [
        -4.616365432739258,
        -2.1664185523986816,
        -12.455375671386719
      ],
      "type": "VEC3"
    },
    {
      "bufferView": 1,
      "byteOffset": 0,
      "componentType": 5125,
      "count": 2399997,
      "type": "SCALAR"
    },
    {
      "bufferView": 2,
      "byteOffset": 0,
      "componentType": 5126,
      "count": 434276,
      "type": "VEC2"
    },
    {
      "bufferView": 3,
      "byteOffset": 0,
      "componentType": 5121,
      "count": 434276,
      "normalized": true,
      "type": "VEC3"
    }
  ],
  "asset": {
    "generator": "Agisoft Metashape",
    "version": "2.0"
  },
  "bufferViews": [
    {
      "buffer": 0,
      "byteLength": 5211312,
      "byteOffset": 0,
      "target": 34962
    },
    {
      "buffer": 0,
      "byteLength": 9599988,
      "byteOffset": 5211312,
      "target": 34963
    },
    {
      "buffer": 0,
      "byteLength": 3474208,
      "byteOffset": 14811300,
      "target": 34962
    },
    {
      "buffer": 0,
      "byteLength": 1737104,
      "byteOffset": 18285508,
      "byteStride": 4,
      "target": 34962
    }
  ],
  "buffers": [
    {
      "uri": "https://raw.githubusercontent.com/alexjulianleeds/cone_test/main/cone_data.bin",
      "byteLength": 20022612
    }
  ],
  "images": [
    {
      "uri": "https://raw.githubusercontent.com/alexjulianleeds/cone_test/main/cone_img0.jpg"
    }
  ],
  "materials": [
    {
      "pbrMetallicRoughness": {
        "baseColorTexture": {
          "index": 0
        },
        "metallicFactor": 0,
        "roughnessFactor": 1
      }
    }
  ],
  "meshes": [
    {
      "primitives": [
        {
          "attributes": {
            "COLOR_0": 3,
            "POSITION": 0,
            "TEXCOORD_0": 2
          },
          "indices": 1,
          "material": 0,
          "mode": 4
        }
      ]
    }
  ],
  "nodes": [
    {
      "mesh": 0
    }
  ],
  "samplers": [
    {
      "minFilter": 9729
    }
  ],
  "scene": 0,
  "scenes": [
    {
      "nodes": [
        0
      ]
    }
  ],
  "textures": [
    {
      "sampler": 0,
      "source": 0
    }
  ]
}
